<svg xmlns="http://www.w3.org/2000/svg" width="46.98" height="96.5" viewBox="0 0 46.98 96.5">
  <g id="coke" transform="translate(-131.368)">
    <path id="Path_1" data-name="Path 1" d="M187.178,457.93v1.886c0,4.586-9.321,8.3-20.818,8.3s-20.82-3.719-20.82-8.3V457.93" transform="translate(-11.501 -371.621)" fill="#f2f2f2"/>
    <path id="Path_2" data-name="Path 2" d="M178.349,103.575v62.444c0,5.176-10.516,9.371-23.489,9.371a54.01,54.01,0,0,1-10.665-1.018c-7.612-1.55-12.826-4.709-12.826-8.354V103.575Z" transform="translate(-0.001 -84.054)" fill="#8d44ff"/>
    <path id="Path_3" data-name="Path 3" d="M178.349,84.405c0,5.176-10.516,9.371-23.489,9.371a53.758,53.758,0,0,1-10.793-1.046c-7.545-1.559-12.7-4.7-12.7-8.325,0-1.61,1.018-3.127,2.814-4.452h41.352C177.331,81.278,178.349,82.8,178.349,84.405Z" transform="translate(-0.001 -64.884)" fill="#f2f2f2"/>
    <path id="Path_4" data-name="Path 4" d="M144.2,103.575v70.8c-7.612-1.55-12.826-4.709-12.826-8.354V103.575Z" transform="translate(-0.002 -84.054)" fill="#6400ff"/>
    <path id="Path_5" data-name="Path 5" d="M187.18,44.067v5.794c0,4.586-9.321,8.305-20.818,8.305a49.7,49.7,0,0,1-7.238-.515c-7.93-1.173-13.582-4.22-13.582-7.79V44.067Z" transform="translate(-11.503 -35.761)" fill="#f2f2f2"/>
    <g id="Group_1" data-name="Group 1" transform="translate(134.039 0)">
      <path id="Path_6" data-name="Path 6" d="M159.125,44.067V57.652c-7.93-1.173-13.582-4.22-13.582-7.79V44.067Z" transform="translate(-145.542 -35.761)" fill="#ccc"/>
      <path id="Path_7" data-name="Path 7" d="M187.18,8.305c0,4.586-9.321,8.305-20.82,8.305a49.127,49.127,0,0,1-7.9-.618c-7.584-1.241-12.924-4.215-12.924-7.687S150.88,1.86,158.464.618A49.106,49.106,0,0,1,166.36,0C177.859,0,187.18,3.719,187.18,8.305Z" transform="translate(-145.54 0)" fill="#ccc"/>
    </g>
    <path id="Path_8" data-name="Path 8" d="M158.464,3.28V18.654c-7.584-1.241-12.924-4.215-12.924-7.687S150.88,4.521,158.464,3.28Z" transform="translate(-11.501 -2.662)" fill="#fff"/>
    <path id="Path_9" data-name="Path 9" d="M191.494,36.149c-2.943,3.158-10.571,5.411-19.515,5.411s-16.574-2.252-19.517-5.411c2.948-3.158,10.573-5.406,19.517-5.406S188.546,32.991,191.494,36.149Z" transform="translate(-17.118 -24.949)" fill="#f2f2f2"/>
    <path id="Path_10" data-name="Path 10" d="M269.6,62.116a43.881,43.881,0,0,1-12.271,1.708,3.365,3.365,0,0,1-.162-1.037c0-2.544,2.8-4.606,6.25-4.606C266.563,58.182,269.164,59.89,269.6,62.116Z" transform="translate(-102.091 -47.216)" fill="#4d4d4d"/>
    <path id="Path_11" data-name="Path 11" d="M147.622,86.775s-3.555,2.224-3.555,5.957c-7.545-1.559-12.7-4.7-12.7-8.325,0-1.61,1.018-3.127,2.814-4.452h4.544Z" transform="translate(0 -64.885)" fill="#ccc"/>
  </g>
</svg>
